<?xml version="1.0" encoding="utf-8"?>
<!-- Generator: Adobe Illustrator 15.0.0, SVG Export Plug-In . SVG Version: 6.00 Build 0)  -->
<!DOCTYPE svg PUBLIC "-//W3C//DTD SVG 1.1//EN" "http://www.w3.org/Graphics/SVG/1.1/DTD/svg11.dtd">
<svg version="1.1" id="Layer_1" xmlns="http://www.w3.org/2000/svg" xmlns:xlink="http://www.w3.org/1999/xlink" x="0px" y="0px"
	 width="40px" height="40px" viewBox="0 0 40 40" enable-background="new 0 0 40 40" xml:space="preserve">
<path fill="#0077B5" d="M20,0C8.954,0,0,8.954,0,20s8.954,20,20,20s20-8.954,20-20S31.046,0,20,0z M14.349,30.211h-4.241v-13.64
	h4.241V30.211z M12.229,14.705c-1.359,0-2.458-1.102-2.458-2.459c0-1.356,1.099-2.457,2.458-2.457c1.355,0,2.457,1.101,2.457,2.457
	C14.686,13.603,13.584,14.705,12.229,14.705z M30.229,30.21h-4.233v-6.633c0-1.583-0.031-3.618-2.201-3.618
	c-2.209,0-2.544,1.723-2.544,3.502v6.748h-4.24V16.571h4.067v1.862h0.058c0.563-1.072,1.948-2.203,4.012-2.203
	c4.289,0,5.082,2.825,5.082,6.499V30.21z"/>
</svg>
